<?xml version="1.0" encoding="UTF-8" standalone="no"?>
<svg
   width="456"
   height="456"
   viewBox="0 0 456 456"
   version="1.1"
   xml:space="preserve"
   style="fill-rule:evenodd;clip-rule:evenodd;stroke-linejoin:round;stroke-miterlimit:2;"
   id="svg10"
   sodipodi:docname="splash.svg"
   inkscape:version="1.2.2 (732a01da63, 2022-12-09)"
   xmlns:inkscape="http://www.inkscape.org/namespaces/inkscape"
   xmlns:sodipodi="http://sodipodi.sourceforge.net/DTD/sodipodi-0.dtd"
   xmlns="http://www.w3.org/2000/svg"
   xmlns:svg="http://www.w3.org/2000/svg"><defs
   id="defs14" /><sodipodi:namedview
   id="namedview12"
   pagecolor="#ffffff"
   bordercolor="#000000"
   borderopacity="0.25"
   inkscape:showpageshadow="2"
   inkscape:pageopacity="0.0"
   inkscape:pagecheckerboard="0"
   inkscape:deskcolor="#d1d1d1"
   showgrid="false"
   inkscape:zoom="1.8179825"
   inkscape:cx="227.72497"
   inkscape:cy="228.27503"
   inkscape:window-width="1920"
   inkscape:window-height="1009"
   inkscape:window-x="-8"
   inkscape:window-y="-8"
   inkscape:window-maximized="1"
   inkscape:current-layer="svg10" />

<path
   fill="FFFFFF"
   id="path284"
   d="m 160.96875,98.321022 c -0.10129,0.636354 -0.25991,1.266199 -0.30386,1.909068 -0.0771,1.12718 -0.0378,2.25931 -0.0583,3.38893 -0.10101,5.56563 -0.0463,11.11079 0.26476,16.67186 0.13605,2.43242 0.34136,4.86046 0.51204,7.29069 2.21133,27.03028 -0.83104,-11.94337 0.88042,16.44662 0.19196,3.18432 0.65628,6.34807 0.85713,9.53185 0.21356,3.38522 0.24054,6.77971 0.38567,10.16856 0.72079,16.83107 0.32924,3.52337 0.71517,19.93969 0.20201,6.00848 0.67946,12.00397 0.92092,18.01045 0.11777,2.92938 0.14991,5.86162 0.24346,8.79188 0.20607,6.4545 0.48106,11.18697 0.48876,17.64213 0.003,2.82179 -0.0988,5.64271 -0.1482,8.46407 0.007,0.24639 0.42291,15.05984 0.42611,15.53955 0.0161,2.4132 -0.11178,4.82577 -0.10516,7.23902 0.006,2.34379 0.13686,4.68614 0.14432,7.02993 0.0141,4.43341 -0.12186,8.86604 -0.16588,13.29926 0.0989,2.14188 0.2858,4.28152 0.29672,6.42566 0.0175,3.43931 -0.44075,9.09597 -0.5722,12.53494 -0.0781,2.0435 -0.0662,4.08963 -0.1326,6.13354 -0.33406,7.58699 -0.19933,3.86308 -0.4106,11.17147 0.13296,4.59715 -0.54024,9.1573 -0.70513,13.74127 -0.0477,1.32711 0.0314,2.657 -0.0233,3.98385 -0.0592,1.43606 -0.48311,5.74288 -0.62442,7.2423 -0.36443,2.0838 0.19568,4.18468 0.0352,6.26781 -0.0719,0.93375 -0.4673,1.82505 -0.52716,2.75965 -0.0529,0.82534 0.19041,1.64662 0.19198,2.47365 0.001,0.7204 -0.14688,1.43393 -0.18318,2.15341 -0.0317,0.62943 -0.0139,1.26037 -0.0208,1.89056 -0.21123,2.01029 14.75182,3.58251 14.96305,1.57222 v 0 c 0.0433,-0.75314 0.11143,-1.50527 0.12995,-2.25943 0.0653,-2.66004 -0.14576,-2.37543 0.11738,-5.10575 0.0911,-0.94548 0.32478,-1.87477 0.39562,-2.82199 0.15756,-2.10683 -0.1193,-4.23496 0.25832,-6.33288 0.009,-1.15743 0.021,-2.31483 0.0264,-3.47228 0.006,-1.24494 -0.0675,-2.49217 0.008,-3.73486 0.0796,-1.31865 0.38913,-2.6175 0.45548,-3.93688 0.0708,-1.40779 -0.11327,-2.82057 -0.0449,-4.22848 0.0744,-1.53131 0.42893,-3.04251 0.47263,-4.575 0.0472,-1.65395 -0.13384,-3.30653 -0.20076,-4.95979 0.16906,-1.79897 0.41366,-3.59244 0.50718,-5.39691 0.10132,-1.9549 0.0358,-3.91496 0.0769,-5.87205 0.0438,-2.08684 0.14036,-4.17241 0.17784,-6.25937 0.0389,-2.16698 -8.9e-4,-4.33508 0.0514,-6.50178 0.0519,-2.1526 0.19903,-4.30207 0.26104,-6.4544 0.0623,-2.16435 0.0747,-4.32985 0.112,-6.49477 0.0109,-21.84967 0.0818,8.90715 -0.25757,-13.31741 -0.0359,-2.34902 0.0366,-4.69846 0.0505,-7.04772 0.0451,-7.63093 0.006,-15.26088 -0.0532,-22.89171 -0.18295,-6.54814 -0.33037,-10.82585 -0.39953,-17.40342 -0.0315,-2.99279 0.0702,-5.98744 -0.0268,-8.97882 -0.0959,-2.95843 -0.40626,-5.90638 -0.55175,-8.86279 -0.29727,-6.04052 -0.33138,-12.09242 -0.73743,-18.12852 -1.11168,-17.43155 -0.30216,-2.05216 -0.73832,-20.00393 -0.27054,-11.13509 -0.36333,-9.01511 -1.0587,-19.89433 -1.03566,-16.20307 0.11338,-0.93311 -1.10676,-16.36858 -1.01515,-16.26511 -0.0452,1.59371 -0.44324,-13.16637 -0.0475,-1.76303 -0.28042,-3.5188 -0.30332,-5.28232 -0.0186,-1.43105 0.13501,-2.85928 0.17899,-4.28978 0.14191,-4.61635 -0.10626,-1.73195 0.24785,-5.096581 0.0772,-2.008492 -14.87242,-2.583479 -14.94967,-0.574987 z"
   style="fill:#ffffff" /><path
   fill="FFFFFF"
   id="path286"
   d="m 264.55467,102.29342 c 0.29795,4.4982 -0.36178,8.99098 -0.41925,13.4847 -0.0315,2.46533 0.1803,4.93063 0.12492,7.39554 -0.75534,33.62004 -0.37602,-18.34328 -0.52596,18.37876 1.14323,29.21845 -0.18078,-8.99622 0.27138,19.83133 0.0494,3.15111 0.3445,6.29451 0.42226,9.44505 0.0739,2.99644 10e-4,5.99481 0.0328,8.99199 0.2128,20.3153 0.14146,-2.74217 0.16213,17.47792 -0.31295,5.53008 0.10597,11.06398 -0.009,16.59418 -0.0527,2.54399 -0.30322,5.08057 -0.39107,7.6236 -0.28726,8.31467 0.007,6.63058 -0.19035,15.00678 -0.0605,2.56481 -0.19913,5.12718 -0.2987,7.69077 0.0171,18.07792 0.18001,-2.71665 -0.51255,14.82877 -0.0893,2.2624 -0.0684,4.52849 -0.0349,6.79241 0.0309,2.09377 0.24744,4.18394 0.22804,6.27785 -0.16942,18.29073 -0.63666,-6.05874 -0.20716,10.96276 0.30575,3.08812 -0.50189,6.11359 -0.57168,9.17808 -0.0316,1.38523 0.21339,2.76585 0.21026,4.15144 -0.003,1.40103 -0.18993,2.79636 -0.22908,4.19684 -0.0747,2.6715 -0.0247,5.34517 -0.0717,8.0173 0.33836,3.54717 -0.47228,7.04655 -0.34756,10.59049 0.0384,1.09 0.34009,2.16561 0.3221,3.25613 -0.15468,9.37582 -0.95641,-2.73645 -0.13633,6.7655 -0.55468,3.2917 -0.2942,6.62368 -0.35008,9.93836 -0.0177,1.05007 -0.10249,2.09828 -0.12106,3.14833 -0.018,1.02006 0.0549,2.04135 0.0112,3.06063 -0.0424,0.98869 -0.17932,1.97105 -0.26897,2.95658 0.28894,2.64187 0.20697,5.29796 0.27882,7.94627 0.0215,0.79376 0.0753,1.58659 0.13899,2.37808 0.0599,0.74387 0.21802,1.48066 0.23168,2.22681 0.0132,0.71932 -0.10102,1.43532 -0.15153,2.15298 0.0797,0.67258 0.21629,1.34084 0.23913,2.01775 0.0216,0.63876 -0.12218,1.27549 -0.10645,1.91442 0.0292,1.18466 0.50558,2.25534 0.43567,3.42124 0.13195,2.02918 15.23565,1.04706 15.1037,-0.98213 v 0 c -0.2416,-4.70637 0.13303,1.95645 -0.2204,-2.50411 -0.0348,-0.43856 0.0242,-0.88475 -0.0464,-1.31899 -0.78897,-4.85655 -0.0875,2.37304 -0.53808,-3.11376 0.0743,-4.68218 -0.0776,-9.36206 -0.16724,-14.04132 -0.22805,-5.14073 -0.11651,-0.44597 0.0547,-5.84525 0.0331,-1.0425 -0.0134,-2.08643 0.0162,-3.12903 0.0304,-1.072 0.1355,-2.14106 0.16362,-3.21312 0.0584,-2.22486 -0.0466,-4.45203 0.0177,-6.67686 0.0778,-9.02688 -0.0689,2.19865 0.20767,-6.7859 0.14254,-4.63003 0.0327,-9.26972 0.24027,-13.89911 -0.0339,-11.31073 -0.0734,3.70021 0.24067,-7.98226 0.0375,-1.39313 -0.0787,-2.78798 -0.0305,-4.18077 0.048,-1.38771 0.25624,-2.76628 0.31875,-4.15342 0.17736,-3.93544 0.0347,-5.29014 -0.12391,-9.30262 0.0624,-1.82288 0.33234,-9.27996 0.32597,-10.93236 -0.008,-2.08477 -0.20926,-4.16664 -0.1935,-6.25136 0.017,-2.25102 0.2125,-4.49726 0.29174,-6.74695 0.29666,-8.42295 0.22145,-6.15804 0.0391,-14.75846 0.45035,-6.3022 0.76789,-8.96052 0.71345,-15.27037 -0.0217,-2.51569 -0.34424,-5.02625 -0.29549,-7.54157 0.05,-2.58228 0.50391,-5.14441 0.59139,-7.72569 0.18961,-5.59466 -0.40625,-11.20248 0.19511,-16.79247 -0.10565,-5.8824 -0.29636,-11.76325 -0.37367,-17.64609 -0.0395,-3.00936 0.0106,-6.01937 -0.0193,-9.02884 -0.0964,-9.69754 -0.43943,-19.39131 -0.53129,-29.08897 0.0821,-5.93728 0.0865,-11.87604 0.23834,-17.81194 0.32236,-12.60065 0.1715,-1.9359 0.69725,-13.23351 0.47574,-10.22314 -0.28245,-0.18125 0.37371,-8.14241 0,-2.07651 -15.45592,-2.07651 -15.45592,0 z"
   style="fill:#ffffff" /><path
   fill="FFFFFF"
   id="path288"
   d="m 64.988841,207.87022 c 7.718415,0.70599 15.40552,1.6956 23.107394,2.54786 8.145375,0.90134 12.690065,1.25736 20.923495,1.98718 3.75805,0.31224 7.51338,0.65918 11.27415,0.93672 4.23842,0.31279 8.47499,0.69065 12.72251,0.83421 6.33693,0.21419 20.59975,-0.0742 26.92016,-0.028 25.56424,0.18706 1.09119,0.53484 25.98605,-7.5e-4 25.21156,-0.2505 -0.37846,0.0937 24.02243,-0.49583 3.79686,-0.0917 7.59686,-0.0489 11.39239,-0.1848 3.96047,-0.14185 7.91359,-0.44399 11.87132,-0.64844 22.28489,-1.15119 1.42269,0.0346 23.28612,-1.24817 3.62112,-4.7e-4 7.24517,0.14412 10.86337,-0.001 3.36884,-0.13551 6.71431,-0.63637 10.07966,-0.84101 3.10762,-0.18897 6.22307,-0.21401 9.3339,-0.3395 7.94388,-0.32047 15.88734,-0.65172 23.83133,-0.9721 4.35222,-0.50489 8.73938,-0.2428 13.10049,-0.52697 1.96655,-0.12815 3.91237,-0.50482 5.8799,-0.61696 1.81412,-0.1034 3.63472,0.0201 5.45113,-0.0289 1.12993,-0.0304 8.53529,-0.44889 9.75965,-0.51679 1.5849,-0.0767 3.1728,-0.10618 4.75471,-0.23009 1.60791,-0.12595 3.20565,-0.35971 4.81059,-0.51918 12.49693,-1.13085 -3.00276,0.31464 9.08068,-0.94507 7.51679,-0.78363 0.89666,0.0995 8.02637,-0.9277 11.90356,-1.9146 -4.18992,0.59492 6.91738,-0.89619 1.00232,-0.13456 1.99161,-0.35285 2.98741,-0.52927 2.00141,-0.26636 0.0189,-15.16336 -1.98256,-14.897 v 0 c -3.25043,0.4886 -6.46351,1.20587 -9.75243,1.40066 -4.05877,0.47983 -8.11222,0.98683 -12.17527,1.42988 -1.46311,0.15954 -2.92222,0.36189 -4.38946,0.47743 -1.48145,0.11665 -2.9727,0.0855 -4.45274,0.21884 -1.53583,0.13837 -3.05842,0.39711 -4.58763,0.59567 -1.5758,0.0549 -3.15134,0.11836 -4.72741,0.16478 -1.67051,0.0492 -3.34422,0.0182 -5.01222,0.12205 -1.8163,0.11313 -3.6157,0.44989 -5.43382,0.5286 -1.97128,0.0853 -3.94656,-0.078 -5.91926,-0.0371 -5.32765,0.11047 -7.61882,0.40912 -12.99403,0.8859 -18.05013,0.8038 -36.11424,1.31864 -54.15421,2.35699 -3.80467,0.26039 -7.60596,0.57613 -11.41402,0.78117 -0.52962,0.0285 -22.88586,0.90208 -23.39968,0.91515 -3.79806,0.0966 -7.59884,0.0448 -11.39705,0.13512 -28.09821,0.66813 5.09933,0.2644 -23.9395,0.52304 -4.20153,0.14215 -8.40143,0.34542 -12.60459,0.42644 -7.16845,0.13818 -19.03534,0.0694 -26.18577,-0.085 -4.32265,-0.0933 -8.64653,-0.18879 -12.96444,-0.41162 -5.28586,-0.27279 -17.90057,-1.3606 -23.38616,-1.81669 -14.434581,-1.15389 -28.861029,-2.49336 -43.201748,-4.52897 -2.016039,-0.31016 -4.32463,14.69568 -2.308591,15.00584 z"
   style="fill:#ffffff" /><path
   fill="FFFFFF"
   id="path290"
   d="m 73.185377,294.23234 c 17.013582,0.36021 34.034513,0.53825 51.048433,1.03737 9.19835,-0.30592 19.56041,-0.25276 27.38727,0.14933 26.85598,-0.45758 53.71919,-0.41378 80.51782,-2.41229 35.12901,-2.9012 70.39589,-4.08112 105.62617,-4.39646 14.3288,-0.0687 28.82726,0.0587 43.03468,0.15998 9.31367,1.84295 8.13169,-21.29911 -3.33076,-15.05032 -17.67533,-0.051 -35.55069,-0.0929 -53.28433,0.0663 -15.54928,0.38042 -31.05989,0.74783 -46.60537,1.53907 -21.72846,1.13568 -43.43772,2.80394 -65.17519,3.79322 -5.34753,0.43399 -23.74843,1.31413 -33.59092,1.2989 -15.8201,0.37095 -31.63574,-0.46921 -47.45611,-0.10405 15.57936,0.45578 -4.68561,-0.0167 -10.01376,-0.01 -15.33389,-0.46854 -30.705077,0.0494 -46.002357,-1.16038 -2.749586,3.62463 -3.78059,10.83274 -2.155576,15.08914 z"
   style="fill:#ffffff" /></svg>
