<?xml version="1.0" encoding="UTF-8" standalone="no"?>
<svg
   width="456"
   height="456"
   viewBox="0 0 456 456"
   version="1.1"
   id="svg4"
   sodipodi:docname="appicon.svg"
   inkscape:version="1.2.2 (732a01da63, 2022-12-09)"
   xmlns:inkscape="http://www.inkscape.org/namespaces/inkscape"
   xmlns:sodipodi="http://sodipodi.sourceforge.net/DTD/sodipodi-0.dtd"
   xmlns="http://www.w3.org/2000/svg"
   xmlns:svg="http://www.w3.org/2000/svg">
  <defs
     id="defs8" />
  <sodipodi:namedview
     id="namedview6"
     pagecolor="#ffffff"
     bordercolor="#000000"
     borderopacity="0.25"
     inkscape:showpageshadow="2"
     inkscape:pageopacity="0.0"
     inkscape:pagecheckerboard="0"
     inkscape:deskcolor="#d1d1d1"
     showgrid="false"
     inkscape:zoom="1.2855077"
     inkscape:cx="220.92438"
     inkscape:cy="238.03824"
     inkscape:window-width="1920"
     inkscape:window-height="1009"
     inkscape:window-x="-8"
     inkscape:window-y="-8"
     inkscape:window-maximized="1"
     inkscape:current-layer="svg4" />
  <rect
     x="0"
     y="0"
     width="456"
     height="456"
     fill="#512BD4"
     id="rect2" />
  <path
     style="fill:#ffffff"
     id="path169"
     d="m 146.00365,9.2582288 c 0.9131,4.1074112 1.55657,8.2593972 2.08741,12.4312082 0.83654,6.869633 1.50046,13.759009 2.03681,20.658161 0.58233,8.251656 1.30512,16.491009 2.06972,24.727381 0.77266,7.777677 1.32488,15.572189 1.75798,23.375226 0.31093,6.755683 0.79051,13.508595 0.75264,20.274025 -0.77514,10.31181 -1.89403,20.59967 -2.82893,30.89996 -1.2096,13.44585 -2.05341,26.92184 -2.76541,40.40213 -0.86966,16.53135 -1.9793,33.0479 -2.84289,49.57974 -0.79596,16.49381 -1.60562,32.98819 -2.13224,49.49317 -0.40495,14.61628 -0.45699,29.23963 -0.51735,43.86055 -0.0467,15.58067 -0.0716,31.16139 -0.1053,46.74209 -0.0262,11.61902 -0.0481,23.23804 -0.071,34.85707 -0.0125,7.82212 0.002,15.64372 -0.12446,23.46497 -0.14538,6.52771 -0.26595,13.05587 0.0435,19.57969 0,0 15.04974,-0.73052 15.04974,-0.73052 v 0 c -0.30905,-6.20063 -0.16161,-12.40786 -0.0394,-18.61244 0.12102,-7.89395 0.1111,-15.78815 0.10565,-23.68292 0.006,-11.61703 0.0153,-23.23407 0.027,-34.8511 0.0177,-15.56699 0.0414,-31.13401 0.10788,-46.70089 0.0676,-14.4843 0.0969,-28.97134 0.50755,-43.45097 0.51766,-16.40122 1.28882,-32.7934 2.08443,-49.18318 0.87516,-16.52803 2.00878,-33.03991 2.87779,-49.56815 0.71356,-13.29359 1.55117,-26.58298 2.73865,-39.84363 0.97302,-10.73303 2.21613,-21.44735 2.94941,-32.19715 0.0171,-7.06382 -0.44125,-14.113815 -0.79321,-21.166733 -0.44383,-7.989037 -0.99887,-15.970011 -1.80055,-23.93225 -0.758,-8.158893 -1.4719,-16.320984 -2.04612,-24.495275 -0.54881,-7.146898 -1.23691,-14.28311 -2.09343,-21.400051 -0.58169,-4.576052 -1.29091,-9.129274 -2.25432,-13.6420287 0,0 -14.7816,3.1119165 -14.7816,3.1119165 z" />
  <path
     style="fill:#ffffff"
     id="path171"
     d="m 292.04542,14.719922 c 0.41015,8.112374 1.6479,16.148024 2.73785,24.188344 1.711,12.002339 2.6839,24.090994 3.51059,36.180969 1.19101,17.73232 0.96655,35.517865 0.86484,53.277855 -0.14978,18.98158 -0.45975,37.96146 -0.68488,56.94227 -0.31163,19.78797 -0.5715,39.57659 -0.9016,59.36428 -0.39675,21.01871 -0.34613,42.04211 -0.3313,63.06353 0.0161,15.30926 0.0509,30.61849 0.0752,45.92774 -0.0331,11.06567 -0.26373,22.13096 -0.57392,33.19212 -0.25364,9.74543 -1.04369,19.46049 -1.93287,29.16452 -0.74063,8.48423 -1.74873,16.95418 -1.95659,25.47206 -0.0383,3.78141 0.21337,7.55451 0.45999,11.32484 0,0 15.02828,-1.00124 15.02828,-1.00124 v 0 c -0.2261,-3.32757 -0.46232,-6.65738 -0.44178,-9.99536 0.15186,-8.17027 1.23267,-16.29336 1.88123,-24.43374 0.91118,-10.02022 1.7326,-20.05129 1.98749,-30.11393 0.30815,-11.21079 0.53089,-22.42584 0.55071,-33.64106 -0.0406,-15.30555 -0.081,-30.61109 -0.12388,-45.91663 -0.0432,-20.93169 -0.0994,-41.86548 0.31867,-62.79426 0.32873,-19.8112 0.60425,-39.62316 0.90994,-59.43473 0.22759,-19.01117 0.55134,-38.02135 0.6805,-57.03353 0.10695,-18.12793 0.34419,-36.281837 -0.84329,-54.382894 -0.84086,-12.422674 -1.83895,-24.843971 -3.59013,-37.176848 -1.05623,-7.823247 -2.25946,-15.643735 -2.58315,-23.54175 0,0 -15.04189,1.367444 -15.04189,1.367444 z" />
  <path
     style="fill:#ffffff"
     id="path173"
     d="m 9.3858707,169.37815 c 13.8130213,-0.18245 27.6259883,-0.40679 41.4386853,-0.62351 26.883858,-0.65163 53.728464,-2.35902 80.578194,-3.79904 16.62418,-0.97734 33.27374,-1.58586 49.92894,-1.45909 7.93887,0.0604 15.58552,0.32212 23.51853,0.55063 22.89344,0.74371 45.79211,-0.064 68.68971,-0.0283 17.71555,0.20401 35.43035,0.53052 53.14224,0.94554 12.65555,0.24308 25.26293,1.35943 37.82237,2.87123 9.7206,1.23684 19.39599,2.78699 29.06024,4.39759 7.98745,1.29446 16.02534,2.24529 24.06405,3.15499 5.48638,0.61573 10.98132,1.15205 16.48118,1.6314 2.84307,0.24729 5.69137,0.42667 8.53888,0.6132 0,0 0.97447,-15.05308 0.97447,-15.05308 v 0 c -2.73871,-0.17515 -5.47792,-0.34693 -8.21229,-0.5824 -5.37204,-0.46223 -10.73952,-0.97798 -16.09864,-1.57258 -7.77783,-0.86995 -15.555,-1.78004 -23.28225,-3.03203 -9.8903,-1.63782 -19.79273,-3.20812 -29.73911,-4.47171 -13.03915,-1.55449 -26.12796,-2.69554 -39.26521,-2.93441 -17.82086,-0.40035 -35.64436,-0.72498 -53.4689,-0.89876 -22.76138,-0.0166 -45.52399,0.77759 -68.2813,0.0499 -7.92759,-0.2241 -16.06439,-0.49516 -23.99352,-0.55097 -16.90617,-0.11901 -33.807,0.50561 -50.68101,1.50667 -26.65398,1.44575 -53.305231,3.1383 -79.995881,3.72552 -13.404491,0.1833 -26.80925,0.35868 -40.214381,0.48425 0,0 -1.0049973,15.07495 -1.0049973,15.07495 z" />
  <path
     style="fill:#ffffff"
     id="path175"
     d="m 23.149618,289.9326 c 26.673286,-0.1583 53.347335,-0.15263 80.021002,-0.17827 41.59094,-0.0309 83.18189,-6.9e-4 124.77282,0.0306 26.44313,0.008 52.88473,0.25497 79.32421,0.67721 18.60013,0.22191 37.19133,0.82005 55.77736,1.55073 13.08624,0.53963 26.17376,1.04738 39.25473,1.70441 8.75579,0.42575 17.50784,0.92186 26.26185,1.38192 5.33237,0.28304 10.66619,0.53686 16.0002,0.78656 0,0 0.69114,-15.05577 0.69114,-15.05577 v 0 c -5.30376,-0.23865 -10.60714,-0.48569 -15.90921,-0.75967 -8.7676,-0.45176 -17.53257,-0.95265 -26.3023,-1.36255 -13.13467,-0.63843 -26.27563,-1.1274 -39.41524,-1.65207 -18.70363,-0.71822 -37.41174,-1.3323 -56.12951,-1.52314 -26.51608,-0.39007 -53.03402,-0.59495 -79.55323,-0.56015 -41.59093,0.0313 -83.18188,0.0615 -124.77282,0.0306 -26.673667,-0.0256 -53.347716,-0.02 -80.021002,-0.17827 0,0 0,15.1078 0,15.1078 z" />
  <path
     style="fill:#ffffff"
     id="path177"
     d="m 95.65147,46.389373 c -3.643272,-2.062385 -7.708119,-3.262324 -11.711,-4.415826 -3.987348,-1.014372 -7.994189,-2.162926 -12.114141,-2.495826 -0.978257,-0.07905 -1.961269,-0.0798 -2.941903,-0.119702 -6.27722,0.278797 -12.209495,2.444487 -17.974501,4.774651 -5.131532,1.981443 -9.348147,5.427288 -13.216889,9.242876 -3.376717,3.332084 -5.922657,7.282457 -8.043722,11.494367 -2.472123,4.812039 -3.485896,10.025017 -3.824844,15.373293 -0.128696,5.754208 1.38709,11.258395 3.593545,16.513264 1.844413,4.29474 4.486029,8.15254 7.258744,11.88815 2.76441,3.89021 6.259565,7.04995 10.108137,9.82524 3.410542,2.21126 6.906096,4.41117 10.796605,5.68156 0.926612,0.30257 1.881064,0.51208 2.821596,0.76812 4.972355,1.0727 10.07699,1.36389 15.148576,1.54354 6.029186,0.0486 12.018001,-0.51965 17.914188,-1.75235 5.881092,-1.33656 11.421409,-3.6867 16.679159,-6.59715 4.51137,-2.53258 8.30651,-5.92486 11.54767,-9.92251 2.5385,-3.3511 4.53387,-7.04963 6.31243,-10.84527 1.96944,-3.87634 2.35943,-8.145995 2.41839,-12.417805 0.18229,-4.2115 -0.84638,-8.173736 -2.47239,-12.016147 -1.60881,-4.165985 -4.44273,-7.484804 -7.60463,-10.551585 -3.01948,-2.780347 -6.20113,-5.373515 -9.50474,-7.80691 -3.29462,-2.378256 -6.84712,-4.355705 -10.42344,-6.269956 -2.912447,-1.655605 -5.886031,-3.192858 -8.940048,-4.5692 -1.756448,-0.74008 -0.916993,-0.38607 -2.518421,-1.061901 0,0 -5.864747,13.910518 -5.864747,13.910518 v 0 c 1.517197,0.639049 0.781713,0.331308 2.206185,0.923862 2.740183,1.221281 5.389089,2.624663 8.001423,4.098761 2.945836,1.574727 5.883231,3.183145 8.607158,5.126359 2.77574,2.032279 5.43792,4.211872 7.98585,6.524201 1.75492,1.662268 3.37298,3.326801 4.2009,5.6599 0.87934,1.9602 1.38455,3.69204 1.23813,5.895985 -0.003,2.128001 0.0183,4.248571 -1.00708,6.178663 -1.26397,2.730476 -2.66552,5.399688 -4.44482,7.836406 -1.93576,2.532829 -4.3491,4.553449 -7.11116,6.155779 -3.904843,2.23102 -8.069719,3.9566 -12.450951,5.01139 -4.68439,1.02818 -9.458031,1.40007 -14.253196,1.4178 -3.966176,-0.13008 -7.956388,-0.34527 -11.864305,-1.06546 -0.758967,-0.18033 -1.875801,-0.40629 -2.623077,-0.71895 -2.137738,-0.89442 -4.082244,-2.22237 -6.049242,-3.42491 -2.6055,-1.8156 -4.910222,-3.93208 -6.753274,-6.541485 -2.07376,-2.779116 -4.095886,-5.624094 -5.493036,-8.81706 -1.365806,-3.097881 -2.353213,-6.358814 -2.403619,-9.773814 0.118842,-3.308356 0.760915,-6.494076 2.275758,-9.468058 1.344392,-2.763335 2.988134,-5.337467 5.178608,-7.52004 2.415187,-2.440244 4.992445,-4.715552 8.248412,-5.961238 3.823961,-1.562526 7.726294,-3.061723 11.833782,-3.671514 3.878877,0.05164 7.632046,1.022247 11.3595,2.036535 2.532476,0.724863 5.053049,1.527919 7.492297,2.496646 0,0 8.382133,-12.573199 8.382133,-12.573199 z" />
  <path
     style="fill:#ffffff"
     id="path179"
     d="m 206.51561,61.153209 c 2.45807,1.477595 4.78451,3.154845 7.06365,4.891623 3.69678,2.895932 7.11499,6.116357 10.43812,9.427277 3.36684,3.342006 6.49161,6.90172 9.2207,10.781617 3.29219,4.830869 6.16517,9.921861 8.93967,15.061024 2.44338,4.67712 4.75135,9.42356 7.2933,14.04855 2.09939,3.93538 4.78406,7.4666 7.65073,10.86204 0,0 11.52106,-9.74228 11.52106,-9.74228 v 0 c -2.22862,-2.63093 -4.35192,-5.33214 -5.96768,-8.39895 -2.5334,-4.57921 -4.79657,-9.300066 -7.2397,-13.927317 -3.06664,-5.679553 -6.26266,-11.294753 -9.91392,-16.624603 -3.25665,-4.555373 -6.86553,-8.821323 -10.86972,-12.744217 -3.79684,-3.775801 -7.71046,-7.440202 -11.93473,-10.739605 -2.7225,-2.073022 -5.50145,-4.072524 -8.42716,-5.852362 0,0 -7.77432,12.957203 -7.77432,12.957203 z" />
  <path
     style="fill:#ffffff"
     id="path181"
     d="m 265.48456,45.441637 c -4.63074,1.771343 -9.20145,3.690319 -13.73531,5.69512 -6.04312,2.63568 -11.45023,6.412735 -16.75094,10.278909 -5.45213,3.902004 -10.08099,8.792427 -14.71033,13.605895 -4.03945,4.148655 -7.73045,8.609691 -11.30263,13.160791 -2.7945,3.501434 -5.18238,7.280298 -7.27938,11.231554 -1.59769,3.210424 -3.08983,6.474354 -4.53118,9.757754 -1.10981,2.56773 -2.24036,5.12627 -3.36959,7.6855 0,0 13.80722,6.08752 13.80722,6.08752 v 0 c 1.1327,-2.57101 2.26769,-5.14089 3.38504,-7.71863 1.28893,-2.95053 2.63531,-5.87816 4.04921,-8.77082 1.65874,-3.16561 3.58152,-6.17327 5.80718,-8.975412 3.2504,-4.158198 6.60939,-8.234452 10.29383,-12.019843 4.01969,-4.184378 8.00909,-8.475059 12.73737,-11.877385 4.42469,-3.236814 8.9087,-6.452063 13.95657,-8.66399 4.30865,-1.904091 8.65201,-3.729118 13.06361,-5.383219 0,0 -5.42067,-14.093744 -5.42067,-14.093744 z" />
  <path
     style="fill:#ffffff"
     id="path183"
     d="m 196.03981,53.410472 c 1.10327,0.965532 2.20406,1.933567 3.32005,2.884388 1.2886,1.200299 2.51571,2.466598 3.76214,3.710914 1.44769,1.502316 2.96681,2.936773 4.5,4.351512 1.86237,1.729389 3.92531,3.145718 6.2008,4.263889 1.29502,0.612026 2.72703,0.684386 4.08183,1.043635 0,0 3.80599,-14.62118 3.80599,-14.62118 v 0 c -0.36869,-0.09499 -3.61302,-0.934999 -1.74786,-0.224257 0.0747,0.05654 0.31752,0.161067 0.2242,0.169616 -0.49428,0.04528 -1.88636,-1.508198 -2.34692,-1.751547 -1.38936,-1.26889 -2.75127,-2.571794 -4.05777,-3.925796 -1.53295,-1.525383 -3.03118,-3.090618 -4.64599,-4.530401 -1.10215,-0.93121 -2.17797,-1.892186 -3.26163,-2.844752 0,0 -9.83484,11.473979 -9.83484,11.473979 z" />
  <path
     style="fill:#ffffff"
     id="path185"
     d="m 250.00496,181.47551 c -3.66897,-0.10821 -7.29362,0.0812 -10.91975,0.64373 -5.04474,0.96097 -10.00927,2.32916 -14.81319,4.13908 -5.18088,2.15051 -9.70525,5.50319 -14.10962,8.91501 -4.42592,3.33093 -7.49665,7.8617 -10.28624,12.56091 -1.78226,3.10129 -3.35944,6.34224 -3.83898,9.93211 -0.34694,2.59724 -0.15123,3.70452 0.0209,6.24785 0.49815,4.72562 2.01125,9.21228 4.08757,13.45753 2.35388,4.52568 5.9198,8.20676 9.39462,11.87509 3.78432,4.22161 8.80319,6.83432 13.81964,9.28567 4.5219,2.27264 9.36076,3.73902 14.26217,4.92336 4.66961,0.80474 9.39814,1.7208 14.15992,1.64594 1.02889,-0.0162 2.05455,-0.11985 3.08183,-0.17977 6.72146,-0.59743 12.07672,-3.73654 17.2685,-7.7957 3.21017,-2.75746 6.05267,-5.97163 8.14233,-9.66839 1.27378,-2.25343 1.72602,-3.54009 2.69219,-5.88183 2.33156,-6.21383 2.69349,-12.85796 2.83479,-19.42292 0.1544,-6.22196 -1.28057,-11.67849 -3.86845,-17.27379 -2.36452,-4.52015 -5.51387,-8.24132 -9.37762,-11.52858 -3.60224,-2.74914 -7.59933,-4.90191 -11.71392,-6.7697 -3.19204,-1.4053 -6.4898,-2.53772 -9.86544,-3.4047 -1.5673,-0.39255 -3.14535,-0.73886 -4.72387,-1.08252 0,0 -3.20278,14.7483 -3.20278,14.7483 v 0 c 1.41663,0.30678 2.83288,0.61586 4.2389,0.96892 2.52344,0.6155 4.96649,1.51276 7.35624,2.52637 2.87802,1.28268 5.66687,2.7705 8.24405,4.59254 2.21499,1.78325 3.99554,3.95227 5.4232,6.4199 1.6439,3.29725 2.53225,6.79561 2.42206,10.50787 -0.0817,4.72047 -0.20602,9.53137 -1.73311,14.04609 -1.50487,3.79359 -3.05334,6.72848 -6.24496,9.41952 -2.62768,2.14221 -5.4507,4.15443 -8.91072,4.5571 -4.27553,0.35932 -8.50715,-0.32749 -12.71188,-1.08802 -3.84111,-0.9089 -7.63455,-2.03831 -11.17542,-3.81628 -3.39812,-1.64594 -6.91155,-3.23905 -9.47469,-6.10547 -2.45638,-2.58787 -5.06647,-5.12466 -6.84413,-8.2503 -1.29687,-2.48151 -2.16192,-5.16941 -2.55124,-7.94601 -0.10889,-0.94284 -0.36748,-2.08215 -0.16765,-3.04123 0.31955,-1.5337 1.26106,-2.85112 1.94025,-4.23086 1.80585,-3.07814 3.64636,-6.13453 6.54935,-8.31821 3.2297,-2.51398 6.50865,-5.0564 10.26149,-6.74809 3.81714,-1.50458 7.82513,-2.4948 11.83675,-3.33025 2.81532,-0.49593 5.64387,-0.48474 8.49691,-0.42055 0,0 0,-15.10972 0,-15.10972 z" />
  <path
     style="fill:#ffffff"
     id="path187"
     d="m 344.35883,194.25836 c 5.08528,2.84863 10.08601,5.84461 15.06058,8.88128 7.97661,4.89059 15.58461,10.35595 22.81367,16.29034 4.94801,4.12769 9.40775,8.77799 13.56298,13.69054 3.151,4.0012 6.14052,8.12513 9.27985,12.136 2.38218,2.91086 4.83833,5.74692 7.00405,8.82419 1.59245,2.13642 3.13033,4.27894 4.22888,6.70935 0.13168,0.33623 0.26336,0.67247 0.39503,1.00871 0,0 13.99948,-5.63941 13.99948,-5.63941 v 0 c -0.23382,-0.57109 -0.46764,-1.14217 -0.70146,-1.71325 -1.522,-3.23847 -3.41521,-6.22774 -5.59558,-9.06672 -2.31953,-3.27763 -4.89086,-6.34268 -7.4637,-9.42324 -3.2649,-4.15977 -6.34988,-8.4562 -9.65705,-12.58254 -4.75859,-5.59514 -9.86215,-10.89164 -15.52644,-15.58501 -7.7776,-6.34622 -15.9331,-12.22197 -24.49009,-17.47909 -5.05851,-3.10153 -10.14658,-6.1553 -15.29714,-9.10211 0,0 -7.61306,13.05096 -7.61306,13.05096 z" />
  <path
     style="fill:#ffffff"
     id="path189"
     d="m 366.5043,257.91918 c 3.55974,-2.66594 6.24167,-6.21804 8.70259,-9.87237 2.75697,-4.43642 5.5177,-8.87917 9.00308,-12.78579 3.7631,-3.81664 7.88503,-7.25261 12.01863,-10.65551 3.16222,-2.63406 6.4321,-5.13822 9.83782,-7.449 2.36757,-1.50587 4.73529,-3.0156 7.15507,-4.43678 2.15047,-1.07363 4.35473,-2.0397 6.52843,-3.06836 2.7101,-1.28217 5.41472,-2.5615 7.95911,-4.15244 0.36659,-0.2577 0.73317,-0.51539 1.09975,-0.77309 0,0 -8.79985,-12.27321 -8.79985,-12.27321 v 0 c -0.13658,0.10307 -0.27316,0.20614 -0.40974,0.30921 -1.97225,1.30791 -4.19554,2.16836 -6.29497,3.24375 -2.59127,1.22177 -5.23522,2.34056 -7.75196,3.71131 -2.69713,1.59616 -5.34777,3.27178 -7.98027,4.97198 -3.776,2.58146 -7.41952,5.351 -10.9291,8.28532 -4.75308,3.92126 -9.491,7.8888 -13.75857,12.34499 -3.8645,4.45108 -7.16313,9.30849 -10.21258,14.35087 -1.38855,2.10139 -2.85594,4.15968 -4.76702,5.8275 0,0 8.59958,12.42162 8.59958,12.42162 z" />
  <path
     style="fill:#ffffff"
     id="path191"
     d="m 339.57574,60.404051 c 5.09561,3.620006 9.33357,8.289715 13.58196,12.832724 6.12535,6.699251 12.05693,13.56567 17.68405,20.688275 4.07523,5.161736 7.91262,10.50388 11.84442,15.77411 3.43046,4.5306 6.74421,9.1486 10.21564,13.64795 1.96847,2.43848 1.01673,1.26309 2.85451,3.52675 0,0 11.7021,-9.51444 11.7021,-9.51444 v 0 c -1.75043,-2.1497 -0.87368,-1.07177 -2.63024,-3.2338 -3.4292,-4.42454 -6.68906,-8.97712 -10.06667,-13.44098 -4.01914,-5.380194 -7.95063,-10.827469 -12.1195,-16.094129 -5.89228,-7.439831 -12.09671,-14.615775 -18.5037,-21.617651 -5.16192,-5.524644 -10.35396,-11.163927 -16.64436,-15.435892 0,0 -7.91821,12.867083 -7.91821,12.867083 z" />
  <path
     style="fill:#ffffff"
     id="path193"
     d="m 342.93139,122.86029 c 5.07244,-2.42839 9.64164,-5.81963 14.30905,-8.93828 6.63928,-4.2555 12.30592,-9.76749 17.81154,-15.361117 4.07475,-4.10128 7.94198,-8.399783 11.86961,-12.639989 3.12754,-3.189556 6.10492,-6.519739 9.13254,-9.802694 2.66615,-2.963794 5.70337,-5.534272 8.85615,-7.957092 2.11047,-1.655394 4.40894,-3.031976 6.78265,-4.268938 0,0 -7.03444,-13.34828 -7.03444,-13.34828 v 0 c -3.12428,1.659425 -6.16278,3.478119 -8.95039,5.668586 -3.82275,2.949593 -7.49486,6.091772 -10.7375,9.683642 -3.02262,3.277165 -6.00071,6.596062 -9.11623,9.786427 -3.82034,4.134651 -7.57978,8.327836 -11.54364,12.327326 -4.77273,4.869537 -9.65816,9.707313 -15.43999,13.388519 -3.67582,2.4571 -7.32439,4.9643 -11.10327,7.26111 0,0 5.16392,14.20078 5.16392,14.20078 z" />
  <path
     style="fill:#ffffff"
     id="path195"
     d="m 376.41615,327.31759 c -3.47821,0.73485 -6.85094,1.83254 -10.1888,3.0411 -4.5378,1.65011 -8.43507,4.5192 -11.98851,7.72191 -3.6286,3.54365 -6.39012,7.79033 -8.84573,12.19379 -1.87596,3.4471 -3.44551,7.04509 -4.85433,10.70421 -1.47468,3.80672 -2.12957,7.83565 -2.67398,11.85972 -0.5938,5.26589 -0.39259,10.55364 0.22732,15.80229 0.70579,4.74096 2.06329,9.28749 4.23176,13.55577 2.30014,4.21154 5.99876,6.94082 10.18978,9.0487 4.40032,1.77929 9.05046,2.79331 13.70703,3.62754 5.3683,0.89323 10.82577,0.75512 16.2428,0.58505 5.07267,-0.004 10.03694,-0.97614 14.86558,-2.45713 4.88069,-1.45435 8.99737,-3.93498 12.88646,-7.16734 4.03158,-3.63309 6.65145,-8.38354 9.04898,-13.17307 1.97782,-3.88048 2.95587,-8.22291 2.64217,-12.58251 -0.0653,-0.90698 -0.23773,-1.80305 -0.3566,-2.70457 -0.79268,-4.70798 -2.92669,-8.95349 -5.33565,-13.01522 -1.99183,-3.09893 -3.97973,-6.19914 -5.9339,-9.32199 -2.09503,-3.30875 -4.52958,-6.36194 -7.23056,-9.19029 -2.91744,-3.05044 -6.46669,-5.34907 -10.07581,-7.48521 -3.39153,-2.03089 -7.11992,-3.29569 -10.9056,-4.35173 -3.26882,-0.937 -6.59774,-1.53573 -9.98152,-1.82969 -2.24935,-0.13757 -4.49189,0.11765 -6.72501,0.35011 0,0 1.5723,15.01311 1.5723,15.01311 v 0 c 1.2931,-0.13637 2.58834,-0.29848 3.88968,-0.32103 2.45114,0.19541 4.84983,0.65149 7.21702,1.32938 2.51806,0.69082 5.0171,1.46221 7.27572,2.81132 2.4348,1.42475 4.87746,2.90705 6.85812,4.94388 1.99992,2.05703 3.75948,4.3159 5.31433,6.72951 1.89673,3.03483 3.82329,6.04962 5.77083,9.05206 1.42402,2.36724 2.81118,4.80544 3.37359,7.54256 0.45945,2.21408 0.27466,4.30406 -0.86935,6.30465 -1.46988,2.9682 -2.9635,6.01842 -5.312,8.4037 -2.22901,1.97436 -4.75748,3.41176 -7.6272,4.26715 -3.50935,1.13223 -7.14147,1.79262 -10.84094,1.78474 -4.37091,0.14104 -8.78012,0.30792 -13.11854,-0.36303 -3.32058,-0.58759 -6.61674,-1.30591 -9.81739,-2.38488 -1.31685,-0.54116 -2.54922,-1.24705 -3.35687,-2.44711 -1.44996,-2.5859 -2.07162,-5.48642 -2.63056,-8.37649 -0.50354,-3.97255 -0.65079,-7.97754 -0.24838,-11.96967 0.38268,-2.86563 0.78833,-5.74924 1.81817,-8.46858 1.1455,-3.00469 2.42556,-5.95846 3.9513,-8.79217 1.64936,-2.99615 3.4656,-5.91119 5.85114,-8.3885 2.02939,-1.9195 4.31559,-3.65244 6.94156,-4.65987 2.84889,-1.03705 5.72506,-1.97807 8.7057,-2.56576 0,0 -3.66411,-14.65641 -3.66411,-14.65641 z" />
  <path
     style="fill:#ffffff"
     id="path197"
     d="m 48.888354,359.24375 c 2.643925,1.7153 5.186961,3.57847 7.732538,5.43459 2.098368,1.67735 4.476245,3.09231 6.343918,5.04867 0.657609,0.68884 1.265843,1.68411 1.782759,2.45749 2.471831,3.98154 4.276053,8.32044 6.335284,12.51968 2.820988,6.3004 6.838174,11.71573 11.229113,16.98617 4.918792,5.71926 10.245097,11.06613 15.374226,16.59303 0.61878,0.68959 1.23756,1.37919 1.856341,2.06878 0,0 11.199447,-10.08034 11.199447,-10.08034 v 0 c -0.67508,-0.74792 -1.35017,-1.49583 -2.02525,-2.24375 -4.9548,-5.32009 -10.085677,-10.47946 -14.844137,-15.97943 -3.605995,-4.31832 -6.981978,-8.78349 -9.25664,-13.97601 -2.402425,-4.90644 -4.503413,-9.98395 -7.532613,-14.55458 -1.733127,-2.40483 -1.948564,-2.9026 -4.046957,-5.01667 -2.262772,-2.27968 -5.000892,-4.04074 -7.525223,-6.00138 -2.995566,-2.18927 -5.983477,-4.39879 -9.127277,-6.37342 0,0 -7.495529,13.11717 -7.495529,13.11717 z" />
  <path
     style="fill:#999999"
     id="path199"
     d="m 45.754667,420.41754 c 5.079494,-3.27459 9.319997,-7.69597 13.593723,-11.92928 4.954186,-4.93967 10.229508,-9.52831 15.601823,-14.00214 4.812353,-4.06412 9.513437,-8.25509 14.408783,-12.22034 3.198109,-2.66607 6.625707,-5.01005 10.156208,-7.20745 2.919956,-1.87797 5.971746,-3.52571 9.138786,-4.94254 2.77701,-1.26802 5.63359,-2.34576 8.41071,-3.61197 0,0 -6.32532,-13.70271 -6.32532,-13.70271 v 0 c -2.7168,1.27786 -5.55672,2.27742 -8.27324,3.55924 -3.781825,1.70848 -7.447386,3.65156 -10.937807,5.90302 -4.052176,2.53577 -7.990707,5.23749 -11.667192,8.30113 -4.936622,4.0147 -9.693247,8.2376 -14.546323,12.35148 -5.703323,4.74975 -11.294016,9.63152 -16.556326,14.87234 -3.153585,3.11837 -6.349347,6.30706 -9.761613,9.11365 0,0 6.757788,13.51557 6.757788,13.51557 z" />
  <path
     style="fill:#999999"
     id="path250"
     d="m 26.223045,49.57405 c 1.540312,1.056171 3.044871,2.166784 4.543265,3.282808 3.495195,2.51934 6.890133,5.172008 10.342339,7.748638 4.302816,3.206957 8.525241,6.519542 12.724438,9.860408 7.461866,6.198291 14.812401,12.528865 22.200847,18.81406 7.79321,6.61991 15.495222,13.345036 23.092766,20.188456 7.23105,6.67028 14.26256,13.55243 21.3955,20.32716 7.10919,6.81131 14.09697,13.74819 21.02715,20.74115 8.93265,9.16177 17.67701,18.50461 26.5512,27.72301 10.4031,10.91065 21.41284,21.21813 32.40577,31.52648 11.51615,10.82864 22.87178,21.82536 34.29963,32.74653 9.63748,9.2442 19.22603,18.53967 28.91354,27.73152 9.80017,9.18373 19.46378,18.51126 29.20872,27.75309 10.06512,9.47715 19.99807,19.09294 29.99534,28.64138 10.33415,9.72662 20.70829,19.41026 31.02236,29.15825 10.47848,9.92692 20.89632,19.91756 31.26189,29.96224 6.50823,6.25827 12.91075,12.6232 19.16223,19.13783 3.95762,4.1171 7.91406,8.23458 11.80925,12.41069 2.55568,2.70477 4.93565,5.56294 7.30992,8.42551 1.77565,2.1496 3.47788,4.35701 5.27765,6.48652 0,0 11.50837,-9.7638 11.50837,-9.7638 v 0 c -1.77361,-2.08018 -3.42503,-4.25955 -5.17624,-6.35865 -2.5642,-3.08739 -5.14,-6.16561 -7.90104,-9.08131 -3.94978,-4.22288 -7.96091,-8.38681 -11.97455,-12.54913 -6.3874,-6.63725 -12.92424,-13.12613 -19.57595,-19.4987 -10.42072,-10.06481 -20.89378,-20.07518 -31.39828,-30.05253 -10.2795,-9.75144 -20.64745,-19.40786 -30.97096,-29.11255 -10.00603,-9.56696 -19.93776,-19.21175 -30.02936,-28.68882 -9.74492,-9.24079 -19.40032,-18.57583 -29.20189,-27.75702 -9.67786,-9.1782 -19.25155,-18.46551 -28.8892,-27.68586 -11.46985,-10.9425 -22.85767,-21.97087 -34.40567,-32.83145 -10.80671,-10.13357 -21.61482,-20.2816 -31.84612,-31.00261 -8.92362,-9.26896 -17.70437,-18.6744 -26.67969,-27.89328 -7.03345,-7.10834 -14.12924,-14.15623 -21.35196,-21.07261 C 123.64298,112.02914 116.51812,105.05409 109.1862,98.298905 101.48305,91.36218 93.67406,84.54559 85.768198,77.840583 78.258519,71.448265 70.795594,65.000168 63.218813,58.687197 58.899453,55.240126 54.55646,51.821759 50.124445,48.519989 46.674524,45.947755 43.286618,43.292957 39.799588,40.770004 37.764037,39.24379 35.7274,37.702222 33.561808,36.364277 c 0,0 -7.338763,13.209773 -7.338763,13.209773 z" />
</svg>
